<svg xmlns="http://www.w3.org/2000/svg" width="900" height="189" viewBox="0 0 900 189" role="img"><defs><linearGradient id="neon"><stop stop-color="#67e8f9"/><stop offset="1" stop-color="#a78bfa"/></linearGradient><radialGradient id="halo"><stop stop-color="#7c3aed" stop-opacity=".24"/><stop offset="1" stop-color="#7c3aed" stop-opacity="0"/></radialGradient><pattern id="grid" width="40" height="40" patternUnits="userSpaceOnUse"><path d="M40 0H0V40" fill="none" stroke="#a78bfa" stroke-opacity=".06"/></pattern></defs><title>Tech stack: Rust, TypeScript, React, Vue, Nuxt, Node.js, Express, PostgreSQL, Redux Toolkit and Pinia</title><rect x=".5" y=".5" width="899" height="188" rx="16" fill="#101521" stroke="#2a3145"/><text x="28" y="35" fill="#8998b3" font-family="monospace" font-size="11" letter-spacing="3">LANGUAGES &amp; TOOLS</text><rect x="28" y="49" width="196" height="32" rx="8" fill="#161e30" stroke="#2c3852"/><circle cx="42" cy="65" r="3" fill="#67e8f9"/><text x="55" y="70" fill="#c6d4e9" font-family="monospace" font-size="13">TypeScript</text><rect x="244" y="49" width="196" height="32" rx="8" fill="#161e30" stroke="#2c3852"/><circle cx="258" cy="65" r="3" fill="#67e8f9"/><text x="271" y="70" fill="#c6d4e9" font-family="monospace" font-size="13">React</text><rect x="460" y="49" width="196" height="32" rx="8" fill="#161e30" stroke="#2c3852"/><circle cx="474" cy="65" r="3" fill="#67e8f9"/><text x="487" y="70" fill="#c6d4e9" font-family="monospace" font-size="13">Vue / Nuxt</text><rect x="676" y="49" width="196" height="32" rx="8" fill="#161e30" stroke="#2c3852"/><circle cx="690" cy="65" r="3" fill="#67e8f9"/><text x="703" y="70" fill="#c6d4e9" font-family="monospace" font-size="13">Node.js</text><rect x="28" y="92" width="196" height="32" rx="8" fill="#161e30" stroke="#2c3852"/><circle cx="42" cy="108" r="3" fill="#a78bfa"/><text x="55" y="113" fill="#c6d4e9" font-family="monospace" font-size="13">Express</text><rect x="244" y="92" width="196" height="32" rx="8" fill="#161e30" stroke="#2c3852"/><circle cx="258" cy="108" r="3" fill="#a78bfa"/><text x="271" y="113" fill="#c6d4e9" font-family="monospace" font-size="13">PostgreSQL</text><rect x="460" y="92" width="196" height="32" rx="8" fill="#161e30" stroke="#2c3852"/><circle cx="474" cy="108" r="3" fill="#a78bfa"/><text x="487" y="113" fill="#c6d4e9" font-family="monospace" font-size="13">Redux Toolkit</text><rect x="676" y="92" width="196" height="32" rx="8" fill="#161e30" stroke="#2c3852"/><circle cx="690" cy="108" r="3" fill="#a78bfa"/><text x="703" y="113" fill="#c6d4e9" font-family="monospace" font-size="13">Pinia</text><rect x="28" y="135" width="196" height="32" rx="8" fill="#161e30" stroke="#2c3852"/><circle cx="42" cy="151" r="3" fill="#a78bfa"/><text x="55" y="156" fill="#c6d4e9" font-family="monospace" font-size="13">Rust</text><rect x="244" y="135" width="196" height="32" rx="8" fill="#161e30" stroke="#2c3852"/><circle cx="258" cy="151" r="3" fill="#a78bfa"/><text x="271" y="156" fill="#c6d4e9" font-family="monospace" font-size="13">Axum</text><rect x="460" y="135" width="196" height="32" rx="8" fill="#161e30" stroke="#2c3852"/><circle cx="474" cy="151" r="3" fill="#a78bfa"/><text x="487" y="156" fill="#c6d4e9" font-family="monospace" font-size="13">Tokio</text><rect x="676" y="135" width="196" height="32" rx="8" fill="#161e30" stroke="#2c3852"/><circle cx="690" cy="151" r="3" fill="#a78bfa"/><text x="703" y="156" fill="#c6d4e9" font-family="monospace" font-size="13">SeaORM</text></svg>